CooperHewitt-Semibold.ufo
<glyph name="dollar" format="2">
  <advance width="600"/>
  <unicode hex="0024"/>
  <outline>
    <contour>
      <point x="459" y="840" type="line"/>
      <point x="427" y="709" type="line"/>
      <point x="508" y="676"/>
      <point x="545" y="608"/>
      <point x="545" y="507" type="curve" smooth="yes"/>
      <point x="545" y="493" type="line"/>
      <point x="414" y="493" type="line"/>
      <point x="414" y="527"/>
      <point x="408" y="555"/>
      <point x="396" y="576" type="curve"/>
      <point x="363" y="438" type="line"/>
      <point x="485" y="417"/>
      <point x="551" y="370"/>
      <point x="551" y="261" type="curve" smooth="yes"/>
      <point x="551" y="252" type="line" smooth="yes"/>
      <point x="551" y="127"/>
      <point x="464" y="51"/>
      <point x="304" y="51" type="curve" smooth="yes"/>
      <point x="292" y="51"/>
      <point x="281" y="51"/>
      <point x="271" y="52" type="curve"/>
      <point x="244" y="-60" type="line"/>
      <point x="142" y="-60" type="line"/>
      <point x="174" y="73" type="line"/>
      <point x="91" y="106"/>
      <point x="49" y="176"/>
      <point x="49" y="273" type="curve" smooth="yes"/>
      <point x="49" y="279" type="line"/>
      <point x="181" y="279" type="line"/>
      <point x="181" y="245"/>
      <point x="189" y="219"/>
      <point x="204" y="199" type="curve"/>
      <point x="240" y="350" type="line"/>
      <point x="112" y="372"/>
      <point x="56" y="424"/>
      <point x="56" y="525" type="curve" smooth="yes"/>
      <point x="56" y="534" type="line" smooth="yes"/>
      <point x="56" y="659"/>
      <point x="153" y="730"/>
      <point x="300" y="730" type="curve" smooth="yes"/>
      <point x="310" y="730"/>
      <point x="320" y="729"/>
      <point x="330" y="729" type="curve"/>
      <point x="357" y="840" type="line"/>
    </contour>
    <contour>
      <point x="306" y="160" type="line" smooth="yes"/>
      <point x="371" y="160"/>
      <point x="417" y="192"/>
      <point x="417" y="246" type="curve" smooth="yes"/>
      <point x="417" y="251" type="line" smooth="yes"/>
      <point x="417" y="293"/>
      <point x="394" y="320"/>
      <point x="338" y="334" type="curve"/>
      <point x="297" y="160" type="line"/>
    </contour>
    <contour>
      <point x="188" y="535" type="line" smooth="yes"/>
      <point x="188" y="494"/>
      <point x="207" y="468"/>
      <point x="265" y="454" type="curve"/>
      <point x="305" y="621" type="line"/>
      <point x="296" y="621" type="line" smooth="yes"/>
      <point x="236" y="621"/>
      <point x="188" y="591"/>
      <point x="188" y="540" type="curve" smooth="yes"/>
    </contour>
  </outline>
</glyph>
<glyph name="J" format="2">
  <advance width="524"/>
  <unicode hex="004A"/>
  <outline>
    <contour>
      <point x="334" y="780" type="line"/>
      <point x="468" y="780" type="line"/>
      <point x="468" y="239" type="line" smooth="yes"/>
      <point x="468" y="81"/>
      <point x="405" y="-13"/>
      <point x="246" y="-13" type="curve" smooth="yes"/>
      <point x="81" y="-13"/>
      <point x="25" y="79"/>
      <point x="25" y="240" type="curve" smooth="yes"/>
      <point x="25" y="263" type="line"/>
      <point x="152" y="263" type="line"/>
      <point x="152" y="156"/>
      <point x="174" y="104"/>
      <point x="243" y="104" type="curve" smooth="yes"/>
      <point x="311" y="104"/>
      <point x="334" y="156"/>
      <point x="334" y="256" type="curve" smooth="yes"/>
    </contour>
  </outline>
</glyph>
<glyph name="b" format="2">
  <advance width="563"/>
  <unicode hex="0062"/>
  <outline>
    <contour>
      <point x="187" y="800" type="line"/>
      <point x="187" y="481" type="line"/>
      <point x="217" y="517"/>
      <point x="262" y="543"/>
      <point x="328" y="543" type="curve" smooth="yes"/>
      <point x="473" y="543"/>
      <point x="526" y="433"/>
      <point x="526" y="281" type="curve" smooth="yes"/>
      <point x="526" y="249" type="line" smooth="yes"/>
      <point x="526" y="98"/>
      <point x="473" y="-13"/>
      <point x="328" y="-13" type="curve" smooth="yes"/>
      <point x="252" y="-13"/>
      <point x="204" y="21"/>
      <point x="175" y="66" type="curve"/>
      <point x="164" y="0" type="line"/>
      <point x="49" y="0" type="line"/>
      <point x="57" y="150" type="line"/>
      <point x="57" y="800" type="line"/>
    </contour>
    <contour>
      <point x="187" y="369" type="curve"/>
      <point x="187" y="161" type="line"/>
      <point x="203" y="136"/>
      <point x="236" y="101"/>
      <point x="291" y="101" type="curve" smooth="yes"/>
      <point x="365" y="101"/>
      <point x="396" y="156"/>
      <point x="396" y="249" type="curve" smooth="yes"/>
      <point x="396" y="281" type="line" smooth="yes"/>
      <point x="396" y="374"/>
      <point x="365" y="430"/>
      <point x="291" y="430" type="curve" smooth="yes"/>
      <point x="236" y="430"/>
      <point x="203" y="394"/>
    </contour>
  </outline>
</glyph>
<glyph name="j" format="2">
  <advance width="252"/>
  <unicode hex="006A"/>
  <outline>
    <contour>
      <point x="60" y="-13" type="curve" smooth="yes"/>
      <point x="60" y="530" type="line"/>
      <point x="190" y="530" type="line"/>
      <point x="190" y="-28" type="line" smooth="yes"/>
      <point x="190" y="-164"/>
      <point x="114" y="-213"/>
      <point x="5" y="-213" type="curve" smooth="yes"/>
      <point x="-41" y="-213"/>
      <point x="-69" y="-204"/>
      <point x="-77" y="-200" type="curve"/>
      <point x="-77" y="-92" type="line"/>
      <point x="-70" y="-95"/>
      <point x="-45" y="-100"/>
      <point x="-26" y="-100" type="curve" smooth="yes"/>
      <point x="28" y="-100"/>
      <point x="60" y="-84"/>
    </contour>
    <contour>
      <point x="196" y="763" type="line"/>
      <point x="196" y="622" type="line"/>
      <point x="54" y="622" type="line"/>
      <point x="54" y="763" type="line"/>
    </contour>
  </outline>
</glyph>
<glyph name="r" format="2">
  <advance width="368"/>
  <unicode hex="0072"/>
  <outline>
    <contour>
      <point x="318" y="543" type="curve" smooth="yes"/>
      <point x="324" y="543"/>
      <point x="330" y="542"/>
      <point x="333" y="542" type="curve" smooth="yes"/>
      <point x="333" y="416" type="line"/>
      <point x="311" y="416" type="line" smooth="yes"/>
      <point x="241" y="416"/>
      <point x="204" y="384"/>
      <point x="188" y="360" type="curve"/>
      <point x="188" y="0" type="line"/>
      <point x="58" y="0" type="line"/>
      <point x="58" y="380" type="line"/>
      <point x="49" y="530" type="line"/>
      <point x="164" y="530" type="line"/>
      <point x="175" y="466" type="line"/>
      <point x="205" y="510"/>
      <point x="253" y="543"/>
    </contour>
  </outline>
</glyph>
<glyph name="cent" format="2">
  <advance width="600"/>
  <unicode hex="00A2"/>
  <outline>
    <contour>
      <point x="454" y="840" type="line"/>
      <point x="423" y="712" type="line"/>
      <point x="511" y="680"/>
      <point x="554" y="606"/>
      <point x="554" y="497" type="curve" smooth="yes"/>
      <point x="554" y="470" type="line"/>
      <point x="424" y="470" type="line"/>
      <point x="424" y="521"/>
      <point x="415" y="560"/>
      <point x="393" y="584" type="curve"/>
      <point x="293" y="167" type="line"/>
      <point x="314" y="167" type="line" smooth="yes"/>
      <point x="393" y="167"/>
      <point x="424" y="217"/>
      <point x="424" y="291" type="curve"/>
      <point x="554" y="291" type="line"/>
      <point x="554" y="275" type="line" smooth="yes"/>
      <point x="554" y="133"/>
      <point x="474" y="52"/>
      <point x="309" y="52" type="curve" smooth="yes"/>
      <point x="294" y="52"/>
      <point x="280" y="53"/>
      <point x="266" y="54" type="curve"/>
      <point x="239" y="-60" type="line"/>
      <point x="137" y="-60" type="line"/>
      <point x="171" y="83" type="line"/>
      <point x="86" y="129"/>
      <point x="46" y="227"/>
      <point x="46" y="373" type="curve" smooth="yes"/>
      <point x="46" y="407" type="line" smooth="yes"/>
      <point x="46" y="619"/>
      <point x="130" y="730"/>
      <point x="309" y="730" type="curve" smooth="yes"/>
      <point x="325" y="730" type="line"/>
      <point x="352" y="840" type="line"/>
    </contour>
    <contour>
      <point x="180" y="373" type="line" smooth="yes"/>
      <point x="180" y="310"/>
      <point x="187" y="261"/>
      <point x="205" y="227" type="curve"/>
      <point x="298" y="613" type="line"/>
      <point x="213" y="607"/>
      <point x="180" y="535"/>
      <point x="180" y="407" type="curve" smooth="yes"/>
    </contour>
  </outline>
</glyph>
<glyph name="Thorn" format="2">
  <advance width="598"/>
  <unicode hex="00DE"/>
  <outline>
    <contour>
      <point x="195" y="780" type="line"/>
      <point x="195" y="634" type="line"/>
      <point x="305" y="634" type="line" smooth="yes"/>
      <point x="427" y="634"/>
      <point x="566" y="599"/>
      <point x="566" y="400" type="curve" smooth="yes"/>
      <point x="566" y="380" type="line" smooth="yes"/>
      <point x="566" y="181"/>
      <point x="427" y="146"/>
      <point x="305" y="146" type="curve" smooth="yes"/>
      <point x="195" y="146" type="line"/>
      <point x="195" y="0" type="line"/>
      <point x="61" y="0" type="line"/>
      <point x="61" y="780" type="line"/>
    </contour>
    <contour>
      <point x="195" y="263" type="line"/>
      <point x="310" y="263" type="line" smooth="yes"/>
      <point x="362" y="263"/>
      <point x="430" y="282"/>
      <point x="430" y="385" type="curve" smooth="yes"/>
      <point x="430" y="395" type="line" smooth="yes"/>
      <point x="430" y="498"/>
      <point x="362" y="517"/>
      <point x="310" y="517" type="curve" smooth="yes"/>
      <point x="195" y="517" type="line"/>
    </contour>
  </outline>
</glyph>
<glyph name="atilde" format="2">
  <advance width="538"/>
  <unicode hex="00E3"/>
  <outline>
    <contour>
      <point x="377" y="0" type="line"/>
      <point x="367" y="61" type="line"/>
      <point x="330" y="18"/>
      <point x="273" y="-13"/>
      <point x="194" y="-13" type="curve" smooth="yes"/>
      <point x="82" y="-13"/>
      <point x="34" y="58"/>
      <point x="34" y="143" type="curve" smooth="yes"/>
      <point x="34" y="153" type="line" smooth="yes"/>
      <point x="34" y="268"/>
      <point x="116" y="304"/>
      <point x="219" y="319" type="curve" smooth="yes"/>
      <point x="354" y="340" type="line"/>
      <point x="354" y="342" type="line" smooth="yes"/>
      <point x="354" y="409"/>
      <point x="333" y="442"/>
      <point x="266" y="442" type="curve" smooth="yes"/>
      <point x="194" y="442"/>
      <point x="178" y="401"/>
      <point x="178" y="355" type="curve"/>
      <point x="54" y="355" type="line"/>
      <point x="54" y="364" type="line" smooth="yes"/>
      <point x="54" y="453"/>
      <point x="100" y="543"/>
      <point x="269" y="543" type="curve" smooth="yes"/>
      <point x="434" y="543"/>
      <point x="484" y="466"/>
      <point x="484" y="342" type="curve" smooth="yes"/>
      <point x="484" y="150" type="line"/>
      <point x="492" y="0" type="line"/>
    </contour>
    <contour>
      <point x="367" y="764" type="curve"/>
      <point x="456" y="764" type="line"/>
      <point x="456" y="664"/>
      <point x="412" y="622"/>
      <point x="355" y="622" type="curve" smooth="yes"/>
      <point x="291" y="622"/>
      <point x="244" y="675"/>
      <point x="204" y="675" type="curve" smooth="yes"/>
      <point x="185" y="675"/>
      <point x="171" y="665"/>
      <point x="171" y="636" type="curve"/>
      <point x="82" y="636" type="line"/>
      <point x="82" y="736"/>
      <point x="126" y="778"/>
      <point x="183" y="778" type="curve" smooth="yes"/>
      <point x="247" y="778"/>
      <point x="294" y="725"/>
      <point x="334" y="725" type="curve" smooth="yes"/>
      <point x="353" y="725"/>
      <point x="367" y="735"/>
    </contour>
    <contour>
      <point x="239" y="94" type="curve" smooth="yes"/>
      <point x="300" y="94"/>
      <point x="337" y="126"/>
      <point x="354" y="149" type="curve"/>
      <point x="354" y="261" type="line"/>
      <point x="243" y="243" type="line" smooth="yes"/>
      <point x="188" y="234"/>
      <point x="164" y="208"/>
      <point x="164" y="167" type="curve" smooth="yes"/>
      <point x="164" y="159" type="line" smooth="yes"/>
      <point x="164" y="126"/>
      <point x="186" y="94"/>
    </contour>
  </outline>
</glyph>
<glyph name="oslash" format="2">
  <advance width="553"/>
  <unicode hex="00F8"/>
  <outline>
    <contour>
      <point x="516" y="530" type="line"/>
      <point x="464" y="462" type="line"/>
      <point x="499" y="416"/>
      <point x="516" y="353"/>
      <point x="516" y="281" type="curve" smooth="yes"/>
      <point x="516" y="249" type="line" smooth="yes"/>
      <point x="516" y="98"/>
      <point x="442" y="-13"/>
      <point x="276" y="-13" type="curve" smooth="yes"/>
      <point x="215" y="-13"/>
      <point x="166" y="1"/>
      <point x="129" y="28" type="curve"/>
      <point x="108" y="0" type="line"/>
      <point x="36" y="0" type="line"/>
      <point x="88" y="68" type="line"/>
      <point x="53" y="114"/>
      <point x="36" y="177"/>
      <point x="36" y="249" type="curve" smooth="yes"/>
      <point x="36" y="281" type="line" smooth="yes"/>
      <point x="36" y="433"/>
      <point x="110" y="543"/>
      <point x="276" y="543" type="curve" smooth="yes"/>
      <point x="337" y="543"/>
      <point x="385" y="528"/>
      <point x="422" y="502" type="curve"/>
      <point x="444" y="530" type="line"/>
    </contour>
    <contour>
      <point x="166" y="249" type="line" smooth="yes"/>
      <point x="166" y="223"/>
      <point x="169" y="200"/>
      <point x="174" y="180" type="curve"/>
      <point x="347" y="404" type="line"/>
      <point x="329" y="421"/>
      <point x="306" y="430"/>
      <point x="276" y="430" type="curve" smooth="yes"/>
      <point x="200" y="430"/>
      <point x="166" y="373"/>
      <point x="166" y="281" type="curve" smooth="yes"/>
    </contour>
    <contour>
      <point x="386" y="281" type="line" smooth="yes"/>
      <point x="386" y="307"/>
      <point x="383" y="330"/>
      <point x="377" y="350" type="curve"/>
      <point x="205" y="126" type="line"/>
      <point x="222" y="110"/>
      <point x="246" y="101"/>
      <point x="276" y="101" type="curve" smooth="yes"/>
      <point x="352" y="101"/>
      <point x="386" y="158"/>
      <point x="386" y="249" type="curve" smooth="yes"/>
    </contour>
  </outline>
</glyph>
<glyph name="jcircumflex" format="2">
  <advance width="250"/>
  <unicode hex="0135"/>
  <outline>
    <contour>
      <point x="60" y="-13" type="curve" smooth="yes"/>
      <point x="60" y="530" type="line"/>
      <point x="190" y="530" type="line"/>
      <point x="190" y="-27" type="line" smooth="yes"/>
      <point x="190" y="-164"/>
      <point x="115" y="-213"/>
      <point x="5" y="-213" type="curve" smooth="yes"/>
      <point x="-41" y="-213"/>
      <point x="-69" y="-204"/>
      <point x="-77" y="-200" type="curve"/>
      <point x="-77" y="-92" type="line"/>
      <point x="-70" y="-95"/>
      <point x="-45" y="-99"/>
      <point x="-26" y="-99" type="curve" smooth="yes"/>
      <point x="28" y="-99"/>
      <point x="60" y="-84"/>
    </contour>
    <contour>
      <point x="47" y="601" type="line"/>
      <point x="-70" y="601" type="line"/>
      <point x="63" y="780" type="line"/>
      <point x="187" y="780" type="line"/>
      <point x="320" y="601" type="line"/>
      <point x="203" y="601" type="line"/>
      <point x="125" y="693" type="line"/>
    </contour>
  </outline>
</glyph>
<glyph name="Kcommaaccent" format="2">
  <advance width="606"/>
  <unicode hex="0136"/>
  <outline>
    <contour>
      <point x="195" y="780" type="line"/>
      <point x="195" y="435" type="line"/>
      <point x="419" y="780" type="line"/>
      <point x="581" y="780" type="line"/>
      <point x="359" y="463" type="line"/>
      <point x="581" y="0" type="line"/>
      <point x="432" y="0" type="line"/>
      <point x="274" y="342" type="line"/>
      <point x="195" y="230" type="line"/>
      <point x="195" y="0" type="line"/>
      <point x="61" y="0" type="line"/>
      <point x="61" y="780" type="line"/>
    </contour>
    <contour>
      <point x="364" y="-47" type="line"/>
      <point x="364" y="-103" type="line" smooth="yes"/>
      <point x="364" y="-186"/>
      <point x="320" y="-223"/>
      <point x="230" y="-223" type="curve"/>
      <point x="230" y="-174" type="line"/>
      <point x="271" y="-174"/>
      <point x="300" y="-164"/>
      <point x="311" y="-133" type="curve"/>
      <point x="242" y="-133" type="line"/>
      <point x="242" y="-47" type="line"/>
    </contour>
  </outline>
</glyph>
<glyph name="Lcommaaccent" format="2">
  <advance width="511"/>
  <unicode hex="013B"/>
  <outline>
    <contour>
      <point x="496" y="0" type="line"/>
      <point x="61" y="0" type="line"/>
      <point x="61" y="780" type="line"/>
      <point x="195" y="780" type="line"/>
      <point x="195" y="117" type="line"/>
      <point x="496" y="117" type="line"/>
    </contour>
    <contour>
      <point x="340" y="-47" type="line"/>
      <point x="340" y="-103" type="line" smooth="yes"/>
      <point x="340" y="-186"/>
      <point x="296" y="-223"/>
      <point x="206" y="-223" type="curve"/>
      <point x="206" y="-174" type="line"/>
      <point x="247" y="-174"/>
      <point x="276" y="-164"/>
      <point x="287" y="-133" type="curve"/>
      <point x="218" y="-133" type="line"/>
      <point x="218" y="-47" type="line"/>
    </contour>
  </outline>
</glyph>
<glyph name="eng" format="2">
  <advance width="563"/>
  <unicode hex="014B"/>
  <outline>
    <contour>
      <point x="381" y="-13" type="curve" smooth="yes"/>
      <point x="381" y="342" type="line" smooth="yes"/>
      <point x="381" y="393"/>
      <point x="357" y="430"/>
      <point x="298" y="430" type="curve" smooth="yes"/>
      <point x="237" y="430"/>
      <point x="203" y="394"/>
      <point x="188" y="369" type="curve"/>
      <point x="188" y="0" type="line"/>
      <point x="58" y="0" type="line"/>
      <point x="58" y="380" type="line"/>
      <point x="49" y="530" type="line"/>
      <point x="164" y="530" type="line"/>
      <point x="176" y="460" type="line"/>
      <point x="209" y="508"/>
      <point x="264" y="543"/>
      <point x="348" y="543" type="curve" smooth="yes"/>
      <point x="464" y="543"/>
      <point x="511" y="459"/>
      <point x="511" y="363" type="curve" smooth="yes"/>
      <point x="511" y="-28" type="line" smooth="yes"/>
      <point x="511" y="-164"/>
      <point x="436" y="-213"/>
      <point x="326" y="-213" type="curve" smooth="yes"/>
      <point x="280" y="-213"/>
      <point x="253" y="-204"/>
      <point x="244" y="-200" type="curve"/>
      <point x="244" y="-92" type="line"/>
      <point x="251" y="-95"/>
      <point x="277" y="-100"/>
      <point x="296" y="-100" type="curve" smooth="yes"/>
      <point x="349" y="-100"/>
      <point x="381" y="-84"/>
    </contour>
  </outline>
</glyph>
<glyph name="Rcommaaccent" format="2">
  <advance width="611"/>
  <unicode hex="0156"/>
  <outline>
    <contour>
      <point x="195" y="291" type="line"/>
      <point x="195" y="0" type="line"/>
      <point x="61" y="0" type="line"/>
      <point x="61" y="780" type="line"/>
      <point x="305" y="780" type="line" smooth="yes"/>
      <point x="427" y="780"/>
      <point x="566" y="744"/>
      <point x="566" y="546" type="curve" smooth="yes"/>
      <point x="566" y="526" type="line" smooth="yes"/>
      <point x="566" y="401"/>
      <point x="510" y="340"/>
      <point x="439" y="312" type="curve"/>
      <point x="566" y="0" type="line"/>
      <point x="421" y="0" type="line"/>
      <point x="309" y="291" type="line"/>
    </contour>
    <contour>
      <point x="195" y="408" type="line"/>
      <point x="310" y="408" type="line" smooth="yes"/>
      <point x="362" y="408"/>
      <point x="430" y="427"/>
      <point x="430" y="530" type="curve" smooth="yes"/>
      <point x="430" y="541" type="line" smooth="yes"/>
      <point x="430" y="644"/>
      <point x="362" y="663"/>
      <point x="310" y="663" type="curve" smooth="yes"/>
      <point x="195" y="663" type="line"/>
    </contour>
    <contour>
      <point x="361" y="-47" type="line"/>
      <point x="361" y="-103" type="line" smooth="yes"/>
      <point x="361" y="-186"/>
      <point x="317" y="-223"/>
      <point x="227" y="-223" type="curve"/>
      <point x="227" y="-174" type="line"/>
      <point x="268" y="-174"/>
      <point x="297" y="-164"/>
      <point x="308" y="-133" type="curve"/>
      <point x="239" y="-133" type="line"/>
      <point x="239" y="-47" type="line"/>
    </contour>
  </outline>
</glyph>
<glyph name="Sacute" format="2">
  <advance width="621"/>
  <unicode hex="015A"/>
  <outline>
    <contour>
      <point x="290" y="340" type="curve" smooth="yes"/>
      <point x="120" y="363"/>
      <point x="44" y="428"/>
      <point x="44" y="557" type="curve" smooth="yes"/>
      <point x="44" y="567" type="line" smooth="yes"/>
      <point x="44" y="705"/>
      <point x="142" y="793"/>
      <point x="311" y="793" type="curve" smooth="yes"/>
      <point x="496" y="793"/>
      <point x="577" y="706"/>
      <point x="577" y="530" type="curve" smooth="yes"/>
      <point x="577" y="507" type="line"/>
      <point x="443" y="507" type="line"/>
      <point x="443" y="624"/>
      <point x="405" y="676"/>
      <point x="312" y="676" type="curve" smooth="yes"/>
      <point x="303" y="676" type="line" smooth="yes"/>
      <point x="229" y="676"/>
      <point x="181" y="635"/>
      <point x="181" y="574" type="curve" smooth="yes"/>
      <point x="181" y="568" type="line" smooth="yes"/>
      <point x="181" y="504"/>
      <point x="210" y="468"/>
      <point x="333" y="451" type="curve" smooth="yes"/>
      <point x="503" y="428"/>
      <point x="584" y="367"/>
      <point x="584" y="230" type="curve" smooth="yes"/>
      <point x="584" y="219" type="line" smooth="yes"/>
      <point x="584" y="73"/>
      <point x="485" y="-13"/>
      <point x="311" y="-13" type="curve" smooth="yes"/>
      <point x="132" y="-13"/>
      <point x="37" y="74"/>
      <point x="37" y="253" type="curve" smooth="yes"/>
      <point x="37" y="263" type="line"/>
      <point x="171" y="263" type="line"/>
      <point x="171" y="152"/>
      <point x="222" y="104"/>
      <point x="306" y="104" type="curve" smooth="yes"/>
      <point x="315" y="104" type="line" smooth="yes"/>
      <point x="399" y="104"/>
      <point x="447" y="149"/>
      <point x="447" y="214" type="curve" smooth="yes"/>
      <point x="447" y="220" type="line" smooth="yes"/>
      <point x="447" y="288"/>
      <point x="409" y="324"/>
    </contour>
    <contour>
      <point x="302" y="950" type="line"/>
      <point x="439" y="950" type="line"/>
      <point x="376" y="840" type="line"/>
      <point x="246" y="840" type="line"/>
    </contour>
  </outline>
</glyph>
<glyph name="Tcommaaccent" format="2">
  <advance width="544"/>
  <unicode hex="0162"/>
  <outline>
    <contour>
      <point x="339" y="663" type="line"/>
      <point x="339" y="0" type="line"/>
      <point x="205" y="0" type="line"/>
      <point x="205" y="663" type="line"/>
      <point x="19" y="663" type="line"/>
      <point x="19" y="780" type="line"/>
      <point x="525" y="780" type="line"/>
      <point x="525" y="663" type="line"/>
    </contour>
    <contour>
      <point x="333" y="-47" type="line"/>
      <point x="333" y="-103" type="line" smooth="yes"/>
      <point x="333" y="-186"/>
      <point x="289" y="-223"/>
      <point x="199" y="-223" type="curve"/>
      <point x="199" y="-174" type="line"/>
      <point x="240" y="-174"/>
      <point x="269" y="-164"/>
      <point x="280" y="-133" type="curve"/>
      <point x="211" y="-133" type="line"/>
      <point x="211" y="-47" type="line"/>
    </contour>
  </outline>
</glyph>
<glyph name="utilde" format="2">
  <advance width="563"/>
  <unicode hex="0169"/>
  <outline>
    <contour>
      <point x="52" y="530" type="line"/>
      <point x="181" y="530" type="line"/>
      <point x="181" y="188" type="line" smooth="yes"/>
      <point x="181" y="137"/>
      <point x="206" y="101"/>
      <point x="266" y="101" type="curve" smooth="yes"/>
      <point x="326" y="101"/>
      <point x="360" y="136"/>
      <point x="376" y="161" type="curve"/>
      <point x="376" y="530" type="line"/>
      <point x="506" y="530" type="line"/>
      <point x="506" y="150" type="line"/>
      <point x="514" y="0" type="line"/>
      <point x="399" y="0" type="line"/>
      <point x="387" y="70" type="line"/>
      <point x="354" y="22"/>
      <point x="299" y="-13"/>
      <point x="215" y="-13" type="curve" smooth="yes"/>
      <point x="99" y="-13"/>
      <point x="52" y="71"/>
      <point x="52" y="168" type="curve" smooth="yes"/>
    </contour>
    <contour>
      <point x="376" y="764" type="curve"/>
      <point x="465" y="764" type="line"/>
      <point x="465" y="664"/>
      <point x="421" y="622"/>
      <point x="364" y="622" type="curve" smooth="yes"/>
      <point x="300" y="622"/>
      <point x="253" y="675"/>
      <point x="213" y="675" type="curve" smooth="yes"/>
      <point x="194" y="675"/>
      <point x="180" y="665"/>
      <point x="180" y="636" type="curve"/>
      <point x="91" y="636" type="line"/>
      <point x="91" y="736"/>
      <point x="135" y="778"/>
      <point x="192" y="778" type="curve" smooth="yes"/>
      <point x="256" y="778"/>
      <point x="303" y="725"/>
      <point x="343" y="725" type="curve" smooth="yes"/>
      <point x="362" y="725"/>
      <point x="376" y="735"/>
    </contour>
  </outline>
</glyph>
<glyph name="ubreve" format="2">
  <advance width="563"/>
  <unicode hex="016D"/>
  <outline>
    <contour>
      <point x="52" y="530" type="line"/>
      <point x="181" y="530" type="line"/>
      <point x="181" y="188" type="line" smooth="yes"/>
      <point x="181" y="137"/>
      <point x="206" y="101"/>
      <point x="266" y="101" type="curve" smooth="yes"/>
      <point x="326" y="101"/>
      <point x="360" y="136"/>
      <point x="376" y="161" type="curve"/>
      <point x="376" y="530" type="line"/>
      <point x="506" y="530" type="line"/>
      <point x="506" y="150" type="line"/>
      <point x="514" y="0" type="line"/>
      <point x="399" y="0" type="line"/>
      <point x="387" y="70" type="line"/>
      <point x="354" y="22"/>
      <point x="299" y="-13"/>
      <point x="215" y="-13" type="curve" smooth="yes"/>
      <point x="99" y="-13"/>
      <point x="52" y="71"/>
      <point x="52" y="168" type="curve" smooth="yes"/>
    </contour>
    <contour>
      <point x="278" y="589" type="curve" smooth="yes"/>
      <point x="146" y="589"/>
      <point x="97" y="669"/>
      <point x="99" y="780" type="curve"/>
      <point x="195" y="780" type="line"/>
      <point x="195" y="718"/>
      <point x="226" y="689"/>
      <point x="278" y="689" type="curve" smooth="yes"/>
      <point x="330" y="689"/>
      <point x="361" y="718"/>
      <point x="361" y="780" type="curve"/>
      <point x="457" y="780" type="line"/>
      <point x="459" y="669"/>
      <point x="410" y="589"/>
    </contour>
  </outline>
</glyph>
<glyph name="Eszett" format="2">
  <advance width="790"/>
  <unicode hex="1E9E"/>
  <outline>
    <contour>
      <point x="304" y="453" type="line"/>
      <point x="439" y="671" type="line"/>
      <point x="418" y="674"/>
      <point x="397" y="676"/>
      <point x="376" y="676" type="curve" smooth="yes"/>
      <point x="259" y="676"/>
      <point x="190" y="633"/>
      <point x="190" y="530" type="curve" smooth="yes"/>
      <point x="190" y="0" type="line"/>
      <point x="56" y="0" type="line"/>
      <point x="56" y="535" type="line" smooth="yes"/>
      <point x="56" y="710"/>
      <point x="164" y="793"/>
      <point x="376" y="793" type="curve" smooth="yes"/>
      <point x="457" y="793"/>
      <point x="530" y="780"/>
      <point x="587" y="754" type="curve"/>
      <point x="587" y="662" type="line"/>
      <point x="461" y="458" type="line"/>
      <point x="512" y="452" type="line" smooth="yes"/>
      <point x="678" y="432"/>
      <point x="763" y="367"/>
      <point x="763" y="230" type="curve" smooth="yes"/>
      <point x="763" y="219" type="line" smooth="yes"/>
      <point x="763" y="73"/>
      <point x="674" y="-13"/>
      <point x="516" y="-13" type="curve" smooth="yes"/>
      <point x="350" y="-13"/>
      <point x="269" y="60"/>
      <point x="269" y="253" type="curve" smooth="yes"/>
      <point x="269" y="263" type="line"/>
      <point x="403" y="263" type="line"/>
      <point x="403" y="144"/>
      <point x="452" y="104"/>
      <point x="513" y="104" type="curve" smooth="yes"/>
      <point x="522" y="104" type="line" smooth="yes"/>
      <point x="584" y="104"/>
      <point x="626" y="143"/>
      <point x="626" y="214" type="curve" smooth="yes"/>
      <point x="626" y="220" type="line" smooth="yes"/>
      <point x="626" y="288"/>
      <point x="583" y="327"/>
      <point x="486" y="339" type="curve" smooth="yes"/>
      <point x="304" y="361" type="line"/>
    </contour>
  </outline>
</glyph>
<glyph name="quotedblleft" format="2">
  <advance width="445"/>
  <unicode hex="201C"/>
  <outline>
    <contour>
      <point x="43" y="526" type="line"/>
      <point x="43" y="638" type="line" smooth="yes"/>
      <point x="43" y="747"/>
      <point x="95" y="803"/>
      <point x="196" y="803" type="curve"/>
      <point x="196" y="735" type="line"/>
      <point x="148" y="735"/>
      <point x="120" y="714"/>
      <point x="113" y="667" type="curve"/>
      <point x="185" y="667" type="line"/>
      <point x="185" y="526" type="line"/>
    </contour>
    <contour>
      <point x="238" y="526" type="line"/>
      <point x="238" y="638" type="line" smooth="yes"/>
      <point x="238" y="747"/>
      <point x="290" y="803"/>
      <point x="391" y="803" type="curve"/>
      <point x="391" y="735" type="line"/>
      <point x="343" y="735"/>
      <point x="315" y="714"/>
      <point x="308" y="667" type="curve"/>
      <point x="380" y="667" type="line"/>
      <point x="380" y="526" type="line"/>
    </contour>
  </outline>
</glyph>
<glyph name="quotedblright" format="2">
  <advance width="445"/>
  <unicode hex="201D"/>
  <outline>
    <contour>
      <point x="196" y="780" type="line"/>
      <point x="196" y="668" type="line" smooth="yes"/>
      <point x="196" y="559"/>
      <point x="144" y="503"/>
      <point x="43" y="503" type="curve"/>
      <point x="43" y="571" type="line"/>
      <point x="90" y="571"/>
      <point x="118" y="592"/>
      <point x="126" y="639" type="curve"/>
      <point x="54" y="639" type="line"/>
      <point x="54" y="780" type="line"/>
    </contour>
    <contour>
      <point x="391" y="780" type="line"/>
      <point x="391" y="668" type="line" smooth="yes"/>
      <point x="391" y="559"/>
      <point x="339" y="503"/>
      <point x="238" y="503" type="curve"/>
      <point x="238" y="571" type="line"/>
      <point x="285" y="571"/>
      <point x="313" y="592"/>
      <point x="321" y="639" type="curve"/>
      <point x="250" y="639" type="line"/>
      <point x="250" y="780" type="line"/>
    </contour>
  </outline>
</glyph>
<glyph name="quotedblbase" format="2">
  <advance width="445"/>
  <unicode hex="201E"/>
  <outline>
    <contour>
      <point x="196" y="141" type="line"/>
      <point x="196" y="30" type="line" smooth="yes"/>
      <point x="196" y="-79"/>
      <point x="144" y="-135"/>
      <point x="43" y="-135" type="curve"/>
      <point x="43" y="-67" type="line"/>
      <point x="90" y="-67"/>
      <point x="118" y="-46"/>
      <point x="126" y="0" type="curve"/>
      <point x="54" y="0" type="line"/>
      <point x="54" y="141" type="line"/>
    </contour>
    <contour>
      <point x="391" y="141" type="line"/>
      <point x="391" y="30" type="line" smooth="yes"/>
      <point x="391" y="-79"/>
      <point x="339" y="-135"/>
      <point x="238" y="-135" type="curve"/>
      <point x="238" y="-67" type="line"/>
      <point x="285" y="-67"/>
      <point x="313" y="-46"/>
      <point x="321" y="0" type="curve"/>
      <point x="250" y="0" type="line"/>
      <point x="250" y="141" type="line"/>
    </contour>
  </outline>
</glyph>
<glyph name="reversequotedblleft" format="2">
  <advance width="445"/>
  <unicode hex="201F"/>
  <outline>
    <contour>
      <point x="238" y="780" type="line"/>
      <point x="380" y="780" type="line"/>
      <point x="380" y="639" type="line"/>
      <point x="308" y="639" type="line"/>
      <point x="315" y="592"/>
      <point x="343" y="571"/>
      <point x="391" y="571" type="curve"/>
      <point x="391" y="503" type="line"/>
      <point x="290" y="503"/>
      <point x="238" y="559"/>
      <point x="238" y="668" type="curve" smooth="yes"/>
    </contour>
    <contour>
      <point x="43" y="780" type="line"/>
      <point x="185" y="780" type="line"/>
      <point x="185" y="639" type="line"/>
      <point x="113" y="639" type="line"/>
      <point x="120" y="592"/>
      <point x="148" y="571"/>
      <point x="196" y="571" type="curve"/>
      <point x="196" y="503" type="line"/>
      <point x="95" y="503"/>
      <point x="43" y="559"/>
      <point x="43" y="668" type="curve" smooth="yes"/>
    </contour>
  </outline>
</glyph>
<glyph name="bullet" format="2">
  <advance width="430"/>
  <unicode hex="2022"/>
  <outline>
    <contour>
      <point x="366" y="501" type="line"/>
      <point x="366" y="199" type="line"/>
      <point x="64" y="199" type="line"/>
      <point x="64" y="501" type="line"/>
    </contour>
  </outline>
</glyph>
<glyph name="interrobang" format="2">
  <advance width="484"/>
  <unicode hex="203D"/>
  <outline>
    <contour>
      <point x="284" y="216" type="curve"/>
      <point x="211" y="216" type="line"/>
      <point x="202" y="670" type="line"/>
      <point x="157" y="652"/>
      <point x="142" y="599"/>
      <point x="142" y="513" type="curve"/>
      <point x="23" y="513" type="line"/>
      <point x="23" y="528" type="line" smooth="yes"/>
      <point x="23" y="692"/>
      <point x="77" y="793"/>
      <point x="246" y="793" type="curve" smooth="yes"/>
      <point x="411" y="793"/>
      <point x="463" y="697"/>
      <point x="463" y="589" type="curve" smooth="yes"/>
      <point x="463" y="389"/>
      <point x="297" y="408"/>
    </contour>
    <contour>
      <point x="320" y="141" type="line"/>
      <point x="320" y="0" type="line"/>
      <point x="178" y="0" type="line"/>
      <point x="178" y="141" type="line"/>
    </contour>
    <contour>
      <point x="337" y="575" type="curve" smooth="yes"/>
      <point x="337" y="623"/>
      <point x="322" y="658"/>
      <point x="282" y="671" type="curve"/>
      <point x="277" y="428" type="line"/>
      <point x="306" y="480"/>
      <point x="337" y="522"/>
    </contour>
  </outline>
</glyph>
<glyph name="uni208B" format="2">
  <advance width="300"/>
  <unicode hex="208B"/>
  <outline>
    <contour>
      <point x="20" y="151" type="line"/>
      <point x="20" y="239" type="line"/>
      <point x="280" y="239" type="line"/>
      <point x="280" y="151" type="line"/>
    </contour>
  </outline>
</glyph>
<glyph name="commaaccent" format="2">
  <advance width="602"/>
  <unicode hex="E414"/>
  <unicode hex="F6C3"/>
  <outline>
    <contour>
      <point x="311" y="-47" type="line"/>
      <point x="311" y="-103" type="line" smooth="yes"/>
      <point x="311" y="-186"/>
      <point x="267" y="-223"/>
      <point x="177" y="-223" type="curve"/>
      <point x="177" y="-174" type="line"/>
      <point x="218" y="-174"/>
      <point x="247" y="-164"/>
      <point x="258" y="-133" type="curve"/>
      <point x="189" y="-133" type="line"/>
      <point x="189" y="-47" type="line"/>
    </contour>
  </outline>
</glyph>
<glyph name="altcedilla" format="2">
  <advance width="602"/>
  <unicode hex="E416"/>
  <outline>
    <contour>
      <point x="292" y="-122" type="curve" smooth="yes"/>
      <point x="292" y="-104"/>
      <point x="276" y="-96"/>
      <point x="241" y="-96" type="curve" smooth="yes"/>
      <point x="221" y="-96"/>
      <point x="197" y="-100"/>
      <point x="190" y="-103" type="curve"/>
      <point x="190" y="-54" type="line"/>
      <point x="205" y="-50"/>
      <point x="228" y="-44"/>
      <point x="258" y="-44" type="curve" smooth="yes"/>
      <point x="319" y="-44"/>
      <point x="366" y="-70"/>
      <point x="366" y="-129" type="curve" smooth="yes"/>
      <point x="366" y="-186"/>
      <point x="326" y="-214"/>
      <point x="252" y="-214" type="curve" smooth="yes"/>
      <point x="207" y="-214"/>
      <point x="169" y="-203"/>
      <point x="150" y="-190" type="curve"/>
      <point x="170" y="-131" type="line"/>
      <point x="187" y="-141"/>
      <point x="215" y="-147"/>
      <point x="241" y="-147" type="curve" smooth="yes"/>
      <point x="277" y="-147"/>
      <point x="292" y="-139"/>
    </contour>
  </outline>
</glyph>
<glyph name="breve.cap" format="2">
  <advance width="500"/>
  <unicode hex="E426"/>
  <outline>
    <contour>
      <point x="250" y="826" type="curve" smooth="yes"/>
      <point x="116" y="826"/>
      <point x="79" y="882"/>
      <point x="79" y="950" type="curve"/>
      <point x="171" y="950" type="line"/>
      <point x="171" y="919"/>
      <point x="194" y="901"/>
      <point x="250" y="901" type="curve" smooth="yes"/>
      <point x="306" y="901"/>
      <point x="329" y="919"/>
      <point x="329" y="950" type="curve"/>
      <point x="421" y="950" type="line"/>
      <point x="421" y="882"/>
      <point x="384" y="826"/>
    </contour>
  </outline>
</glyph>
<glyph name="invertedbreve.cap" format="2">
  <advance width="500"/>
  <unicode hex="E427"/>
  <outline>
    <contour>
      <point x="250" y="964" type="curve" smooth="yes"/>
      <point x="384" y="964"/>
      <point x="421" y="908"/>
      <point x="421" y="840" type="curve"/>
      <point x="329" y="840" type="line"/>
      <point x="329" y="871"/>
      <point x="306" y="889"/>
      <point x="250" y="889" type="curve" smooth="yes"/>
      <point x="194" y="889"/>
      <point x="171" y="871"/>
      <point x="171" y="840" type="curve"/>
      <point x="79" y="840" type="line"/>
      <point x="79" y="908"/>
      <point x="116" y="964"/>
    </contour>
  </outline>
</glyph>
<glyph name="commaaccent.cap" format="2">
  <advance width="500"/>
  <unicode hex="E42E"/>
  <outline>
    <contour>
      <point x="192" y="840" type="line"/>
      <point x="192" y="870" type="line" smooth="yes"/>
      <point x="192" y="931"/>
      <point x="231" y="966"/>
      <point x="314" y="966" type="curve"/>
      <point x="314" y="930" type="line"/>
      <point x="278" y="930"/>
      <point x="255" y="924"/>
      <point x="245" y="900" type="curve"/>
      <point x="308" y="900" type="line"/>
      <point x="308" y="840" type="line"/>
    </contour>
  </outline>
</glyph>
<glyph name="braceleft.cap" format="2">
  <advance width="350"/>
  <unicode hex="E495"/>
  <outline>
    <contour>
      <point x="315" y="780" type="line"/>
      <point x="315" y="665" type="line"/>
      <point x="263" y="665"/>
      <point x="235" y="644"/>
      <point x="233" y="584" type="curve" smooth="yes"/>
      <point x="233" y="502" type="line" smooth="yes"/>
      <point x="233" y="445"/>
      <point x="211" y="410"/>
      <point x="174" y="390" type="curve"/>
      <point x="211" y="369"/>
      <point x="233" y="334"/>
      <point x="233" y="278" type="curve" smooth="yes"/>
      <point x="233" y="206" type="line" smooth="yes"/>
      <point x="233" y="138"/>
      <point x="261" y="115"/>
      <point x="315" y="115" type="curve"/>
      <point x="315" y="0" type="line"/>
      <point x="290" y="0" type="line" smooth="yes"/>
      <point x="182" y="0"/>
      <point x="102" y="41"/>
      <point x="102" y="166" type="curve" smooth="yes"/>
      <point x="102" y="249" type="line" smooth="yes"/>
      <point x="102" y="312"/>
      <point x="77" y="332"/>
      <point x="24" y="332" type="curve"/>
      <point x="24" y="448" type="line"/>
      <point x="77" y="448"/>
      <point x="102" y="468"/>
      <point x="102" y="531" type="curve" smooth="yes"/>
      <point x="102" y="614" type="line" smooth="yes"/>
      <point x="102" y="739"/>
      <point x="182" y="780"/>
      <point x="290" y="780" type="curve" smooth="yes"/>
    </contour>
  </outline>
</glyph>
<glyph name="five.inf" format="2">
  <advance width="300"/>
  <unicode hex="E576"/>
  <outline>
    <contour>
      <point x="16" y="-75" type="line"/>
      <point x="116" y="-75" type="line"/>
      <point x="116" y="-112"/>
      <point x="132" y="-121"/>
      <point x="147" y="-121" type="curve" smooth="yes"/>
      <point x="152" y="-121" type="line" smooth="yes"/>
      <point x="169" y="-121"/>
      <point x="184" y="-110"/>
      <point x="184" y="-78" type="curve" smooth="yes"/>
      <point x="184" y="-73" type="line" smooth="yes"/>
      <point x="184" y="-42"/>
      <point x="169" y="-31"/>
      <point x="147" y="-31" type="curve" smooth="yes"/>
      <point x="144" y="-31" type="line" smooth="yes"/>
      <point x="131" y="-31"/>
      <point x="114" y="-38"/>
      <point x="105" y="-51" type="curve"/>
      <point x="19" y="-22" type="line"/>
      <point x="28" y="190" type="line"/>
      <point x="278" y="190" type="line"/>
      <point x="278" y="103" type="line"/>
      <point x="112" y="103" type="line"/>
      <point x="109" y="49" type="line"/>
      <point x="123" y="53"/>
      <point x="139" y="56"/>
      <point x="155" y="56" type="curve" smooth="yes"/>
      <point x="241" y="56"/>
      <point x="283" y="4"/>
      <point x="283" y="-71" type="curve" smooth="yes"/>
      <point x="283" y="-81" type="line" smooth="yes"/>
      <point x="283" y="-156"/>
      <point x="241" y="-208"/>
      <point x="150" y="-208" type="curve" smooth="yes"/>
      <point x="61" y="-208"/>
      <point x="16" y="-163"/>
      <point x="16" y="-83" type="curve" smooth="yes"/>
    </contour>
  </outline>
</glyph>
<glyph name="six.inf" format="2">
  <advance width="300"/>
  <unicode hex="E577"/>
  <outline>
    <contour>
      <point x="262" y="197" type="curve"/>
      <point x="262" y="109" type="line"/>
      <point x="203" y="109"/>
      <point x="170" y="98"/>
      <point x="147" y="71" type="curve" smooth="yes"/>
      <point x="139" y="61"/>
      <point x="132" y="49"/>
      <point x="128" y="34" type="curve"/>
      <point x="141" y="41"/>
      <point x="158" y="46"/>
      <point x="177" y="46" type="curve" smooth="yes"/>
      <point x="242" y="46"/>
      <point x="283" y="-2"/>
      <point x="283" y="-77" type="curve" smooth="yes"/>
      <point x="283" y="-82" type="line" smooth="yes"/>
      <point x="283" y="-157"/>
      <point x="241" y="-208"/>
      <point x="149" y="-208" type="curve" smooth="yes"/>
      <point x="60" y="-208"/>
      <point x="16" y="-146"/>
      <point x="16" y="-62" type="curve" smooth="yes"/>
      <point x="16" y="-54" type="line" smooth="yes"/>
      <point x="16" y="8"/>
      <point x="29" y="71"/>
      <point x="71" y="126" type="curve" smooth="yes"/>
      <point x="114" y="184"/>
      <point x="176" y="197"/>
    </contour>
    <contour>
      <point x="150" y="-40" type="line" smooth="yes"/>
      <point x="139" y="-40"/>
      <point x="125" y="-44"/>
      <point x="116" y="-58" type="curve"/>
      <point x="116" y="-70" type="line" smooth="yes"/>
      <point x="116" y="-105"/>
      <point x="130" y="-121"/>
      <point x="148" y="-121" type="curve" smooth="yes"/>
      <point x="151" y="-121" type="line" smooth="yes"/>
      <point x="167" y="-121"/>
      <point x="183" y="-108"/>
      <point x="183" y="-85" type="curve" smooth="yes"/>
      <point x="183" y="-74" type="line" smooth="yes"/>
      <point x="183" y="-48"/>
      <point x="170" y="-40"/>
      <point x="153" y="-40" type="curve" smooth="yes"/>
    </contour>
  </outline>
</glyph>
<glyph name="interrobangdown.cap" format="2">
  <advance width="484"/>
  <unicode hex="E99B"/>
  <outline>
    <contour>
      <point x="200" y="564" type="curve"/>
      <point x="273" y="564" type="line"/>
      <point x="282" y="110" type="line"/>
      <point x="327" y="128"/>
      <point x="342" y="180"/>
      <point x="342" y="267" type="curve"/>
      <point x="461" y="267" type="line"/>
      <point x="461" y="252" type="line" smooth="yes"/>
      <point x="461" y="88"/>
      <point x="407" y="-13"/>
      <point x="238" y="-13" type="curve" smooth="yes"/>
      <point x="73" y="-13"/>
      <point x="21" y="83"/>
      <point x="21" y="191" type="curve" smooth="yes"/>
      <point x="21" y="391"/>
      <point x="187" y="372"/>
    </contour>
    <contour>
      <point x="164" y="639" type="line"/>
      <point x="164" y="780" type="line"/>
      <point x="306" y="780" type="line"/>
      <point x="306" y="639" type="line"/>
    </contour>
    <contour>
      <point x="147" y="205" type="curve" smooth="yes"/>
      <point x="147" y="157"/>
      <point x="161" y="121"/>
      <point x="202" y="108" type="curve"/>
      <point x="207" y="352" type="line"/>
      <point x="178" y="299"/>
      <point x="147" y="257"/>
    </contour>
  </outline>
</glyph>
<glyph name="semicolon.T" format="2">
  <advance width="300"/>
  <unicode hex="F185"/>
  <outline>
    <contour>
      <point x="221" y="141" type="line"/>
      <point x="221" y="30" type="line" smooth="yes"/>
      <point x="221" y="-79"/>
      <point x="169" y="-135"/>
      <point x="68" y="-135" type="curve"/>
      <point x="68" y="-67" type="line"/>
      <point x="115" y="-67"/>
      <point x="143" y="-46"/>
      <point x="151" y="0" type="curve"/>
      <point x="79" y="0" type="line"/>
      <point x="79" y="141" type="line"/>
    </contour>
    <contour>
      <point x="221" y="461" type="line"/>
      <point x="221" y="319" type="line"/>
      <point x="79" y="319" type="line"/>
      <point x="79" y="461" type="line"/>
    </contour>
  </outline>
</glyph>
